<?xml version="1.0" encoding="UTF-8" standalone="no"?>
<!-- Created with Inkscape (http://www.inkscape.org/) -->

<svg
   version="1.1"
   id="svg2"
   width="447"
   height="470"
   viewBox="0 0 447 470"
   sodipodi:docname="logo-vitaliza.svg"
   inkscape:version="1.2 (dc2aedaf03, 2022-05-15)"
   xmlns:inkscape="http://www.inkscape.org/namespaces/inkscape"
   xmlns:sodipodi="http://sodipodi.sourceforge.net/DTD/sodipodi-0.dtd"
   xmlns="http://www.w3.org/2000/svg"
   xmlns:svg="http://www.w3.org/2000/svg">
  <defs
     id="defs6" />
  <sodipodi:namedview
     id="namedview4"
     pagecolor="#ffffff"
     bordercolor="#000000"
     borderopacity="0.25"
     inkscape:showpageshadow="2"
     inkscape:pageopacity="0.0"
     inkscape:pagecheckerboard="0"
     inkscape:deskcolor="#d1d1d1"
     showgrid="false"
     inkscape:zoom="1.3978723"
     inkscape:cx="223.19635"
     inkscape:cy="235.35769"
     inkscape:window-width="1600"
     inkscape:window-height="837"
     inkscape:window-x="-8"
     inkscape:window-y="-8"
     inkscape:window-maximized="1"
     inkscape:current-layer="g8" />
  <g
     inkscape:groupmode="layer"
     inkscape:label="Image"
     id="g8">
    <path
       
       d="m 240.82588,459.81925 c 3.13905,-10.3666 4.54709,-125.91406 1.60487,-131.69955 -3.78425,-7.4412 -9.65844,-7.51746 -23.98127,-0.31132 -15.85324,7.97611 -15.81654,24.01646 0.28498,124.54444 l 1.32677,8.28356 -4.56524,-0.63843 c -23.15619,-3.23834 -62.06524,-14.52674 -62.06524,-18.00655 0,-0.65122 1.07793,-4.05011 2.3954,-7.55309 15.44513,-41.06655 28.42626,-85.84936 26.54094,-91.56195 -4.11053,-12.45503 -31.90896,-8.09651 -37.9518,5.95047 -4.42762,10.29228 -15.92303,64.23543 -15.99985,75.08059 -0.0364,5.14052 -1.4609,5.23688 -8.63709,0.58428 -18.3664,-11.90765 -36.831564,-29.09051 -54.822634,-51.01555 -38.19073,-46.5416 -54.71325,-118.65428 -41.90778,-182.9069 3.07661,-15.4372 1.72184,-14.40932 16.4851,-12.50739 87.636324,11.29005 99.382514,27.29079 86.262504,117.50739 -4.16086,28.61114 -3.49521,30.05779 14.93643,32.46118 44.51751,5.80486 83.93591,-5.09142 111.26381,-30.75625 13.97171,-13.12144 14.86909,-17.40715 6.84799,-32.70493 -36.49615,-69.60521 -45.31518,-134.38856 -29.81272,-218.999996 6.21772,-33.935902 8.15076,-37.8874121 17.09078,-34.93694 6.5014,2.145656 6.78636,3.933865 5.32752,33.431882 -5.67835,114.817244 56.0199,134.324754 146.5631,46.339736 15.59241,-15.151867 19.59272,-16.751164 25.96375,-10.380133 7.13473,7.134733 7.54115,6.394893 -27.56967,50.187861 -29.24227,36.47327 -39.92589,52.17796 -51.05934,75.05613 -9.26572,19.04015 -13.98224,23.30199 -30.91644,27.93601 -9.49603,2.59858 -39.6917,2.60124 -49.31652,0.004 -7.15746,-1.93117 -8.80575,-1.66046 -7.05723,1.15907 6.14161,9.90349 41.43174,12.3612 67.17038,4.67796 11.87728,-3.54549 13.9689,0.083 21.20539,36.78653 6.2292,31.59459 11.74219,49.59016 34.10953,111.34091 17.49598,48.3021 17.62536,49.34437 6.81899,54.93256 -11.91507,6.16152 -17.53488,-0.40222 -37.27506,-43.53592 -29.69923,-64.89494 -39.5784,-81.76272 -50.93926,-86.97408 -16.26687,-7.46179 -22.18752,11.03139 -33.67757,105.19221 -3.88602,31.84587 -5.9198,39.5191 -11.35247,42.83164 -4.35647,2.65633 -14.07912,2.8028 -13.29105,0.20023 z M 151.93075,166.01824 c -18.22629,-4.20235 -82.375194,-9.44899 -115.529664,-9.44899 -4.72773,0 -4.80834,0.33759 4.47138,-18.72754 C 70.488006,76.99676 123.25309,33.8063 188.43075,17.059006 c 9.261,-2.379598 27.06203,-5.761056 27.58339,-5.2397 0.14335,0.143356 -2.60687,8.80824 -6.11161,19.255298 -9.80161,29.216992 -23.71608,85.586806 -28.50899,115.494646 -2.77133,17.29317 -12.10116,23.45198 -29.46279,19.44899 z m -35.07003,-15.33568 c 0.30141,-0.48768 -0.0973,-1.42227 -0.88606,-2.07687 -2.22472,-1.84635 -7.54391,-10.52523 -7.54391,-12.30877 0,-0.99056 2.08212,0.48488 5.48175,3.88452 13.73596,13.73595 35.64149,15.35981 47.4815,3.5198 14.682,-14.682 12.78305,-40.56429 -4.2032,-57.288858 -6.87602,-6.770093 -6.92127,-8.059785 -0.16473,-4.695428 9.91656,4.937858 16.96027,14.596768 19.47756,26.709206 1.322,6.36107 1.86253,5.97907 5.45748,-3.85691 2.16704,-5.929138 2.8427,-9.827068 3.2259,-18.610498 l 0.48473,-11.1105 -9.93813,-0.478554 c -8.94313,-0.430642 -10.64652,-0.839572 -17.01365,-4.084435 -39.1297,-19.941571 -67.020294,1.886222 -64.889544,50.783987 0.52682,12.08977 0.35802,14.71474 -1.23717,19.23828 -2.08692,5.91799 -1.50883,6.76376 6.6823,9.77643 4.134184,1.52053 16.749974,1.94997 17.585174,0.5986 z m 178.07003,-18.51213 c -27.38056,-8.65934 -33.72332,-44.821488 -11.80897,-67.326812 22.80818,-23.423242 59.30897,-8.047229 59.30897,24.983994 0,27.331328 -24.86884,49.500108 -47.5,42.342818 z"
       id="path182" />
  </g>
</svg>
